<?xml version="1.0" encoding="utf-8"?>
<!-- Generator: Adobe Illustrator 22.0.1, SVG Export Plug-In . SVG Version: 6.00 Build 0)  -->
<svg version="1.1" id="Layer_1" xmlns="http://www.w3.org/2000/svg" xmlns:xlink="http://www.w3.org/1999/xlink" x="0px" y="0px"
	 viewBox="0 0 1152 504" style="enable-background:new 0 0 1152 504;" xml:space="preserve">
<style type="text/css">
	.st0{fill:none;stroke:#FF0000;stroke-width:0.1;}
	.st1{fill:#FFFFFF;}
</style>
<g transform="translate(22.5, 22.5) ">
	<polygon class="st0" points="-4.5,-4.5 -4.5,211.5 427.5,211.5 427.5,-4.5 	"/>
</g>
<g transform="translate(562.5, 22.5) ">
	<polyline class="st0" points="-112.5,-4.5 319.5,-4.5 319.5,211.5 -112.5,211.5 	"/>
</g>
<g transform="translate(1083.87, 41.129999999999995) ">
	<polyline class="st0" points="-201.9,6.7 20.3,6.7 20.3,192.9 -201.9,192.9 	"/>
</g>
<g transform="translate(1083.87, 273.86999999999995) ">
	<polyline class="st0" points="20.3,-39.9 20.3,146.3 -201.9,146.3 	"/>
</g>
<g transform="translate(22.5, 273.87) ">
	<polyline class="st0" points="-4.5,-39.9 -4.5,182.3 427.5,182.3 427.5,-39.9 	"/>
</g>
<g transform="translate(562.5, 273.87) ">
	<polyline class="st0" points="-112.5,182.3 319.5,182.3 319.5,-39.9 	"/>
</g>
<g transform="translate(22.5, 22.5) ">
	<polygon class="st0" points="26.6,16.2 26.6,52.2 62.6,52.2 62.6,16.2 	"/>
</g>
<rect x="83.2" y="291.1" class="st0" width="8.6" height="108"/>
<rect x="165.2" y="291.1" class="st0" width="8.6" height="108"/>
<circle class="st0" cx="270.3" cy="302.2" r="7.9"/>
<circle class="st0" cx="374.5" cy="302.2" r="7.9"/>
<circle class="st0" cx="321.9" cy="394" r="7.9"/>
<g>
	<path d="M589.1,137.6c0.4-0.3,0.5-0.4,0.7-0.5c-0.3-0.4-0.5-0.8-0.8-1c-0.7-0.5-0.4-1.3-0.4-1.9c-0.1-0.8,0.2-1.6,0.3-2.4
		c-0.8-0.4-1.9,0-2.4-1.1c0.3-0.1,0.7-0.2,1.1-0.3c-0.9-0.3-1.7-0.6-2.6-1c1-0.9,2.5-0.2,2.9-1.6c-0.3-0.1-0.6-0.2-0.9-0.3
		c0-0.3,0.1-0.5,0.1-0.8c0.1,0.1,0.1,0.1,0.2,0.2c0.6-0.7,1.3-1.3,1.8-2c0.1-0.1-0.3-0.5-0.5-0.9c0.4-1.1,0.9-2.3,1.4-3.6
		c-0.4-0.3-0.7-0.4-1-0.6c0.4-0.7,1.1-0.9,1.8-1c1-0.2,1.4-0.7,1.1-1.9c0.6,0.2,1.1,0.3,1.6,0.4c0-0.1,0.1-0.2,0.1-0.3
		c-0.5-0.2-1-0.5-1.5-0.7c-0.6-0.2-1.3-0.3-0.8-1.3c0.1-0.1-0.2-0.5-0.3-0.6c-0.2-0.2-0.5-0.4-0.9-0.7c0.3-0.1,0.5-0.3,0.7-0.3
		c4.3-0.2,8.6-0.6,12.9-0.6c4.5-0.1,9.1,0.1,13.6,0.1c1.8,0,3.7-0.1,5.5,0c2.2,0.1,4.5,0.4,6.7,0.5c4.3,0.2,8.7,0.4,13,0.4
		c3.5,0,7-0.2,10.6-0.3c2.9-0.1,5.8-0.3,8.7-0.3c2.6,0,5.3,0.2,7.9,0.3c0.6,0,1.2,0,1.8,0c0-0.1,0-0.2,0-0.3
		c-0.4-0.1-0.8-0.2-1.3-0.3c1.3,0,2.6-0.5,3.9,0.5c0.5,0.4,1.3,0.3,2,0.3s1.5-0.1,2.2-0.1c2.2,0,4.3,0.1,6.5,0.2
		c1.3,0,2.5,0.2,3.8,0.2c1.1,0,2.2,0,3.2,0.2c0.4,0.1,0.9-0.2,1.5-0.4c0.5,0,1.1,0.2,1.8,0.2c3.4,0.1,6.9,0.2,10.3,0.3
		c2.6,0.1,5.1,0.2,7.7,0.3c0.2,0,0.4,0,0.5-0.1c1.2-0.3,2.3-0.3,3.4,0.1c0.3,0.1,0.6,0,0.9,0.1c0.1-0.1,0.1-0.2,0.2-0.3
		c-0.4-0.2-0.8-0.4-1.2-0.6c0.1-0.1,0.2-0.2,0.2-0.4c0.5,0.1,1.2-0.4,1.6,0.5c0.1,0.1,0.8,0.2,1.1,0c0.5-0.3,0.9-0.4,1.4,0
		c0.2,0.1,0.5,0,0.8,0.1c0.5,0,1.2-0.1,0.9,0.9c2.4-0.2,4.6,0,6.9,0.1c-0.2-0.7-0.5-1-1.1-0.8c-0.2,0.1-0.5-0.2-0.7-0.3
		c0.1-0.1,0.1-0.3,0.2-0.4c1.1,0.3,2.1,0.7,3.2,1c0.7,0.2,1.4,0.4,2.1,0.4c1.4,0.1,2.8,0.1,4.3,0.3c0.4,0,0.8,0.3,1.2,0.4
		c0.7,0.1,1.4,0.2,2.1,0.4c0,0.1,0,0.2,0,0.2c-0.4,0.1-0.8,0.2-1.2,0.2c-2.6,0-5.2-0.2-7.8-0.2c-4.3,0-8.5,0-12.8,0.1
		c-0.4,0-0.8,0.1-1.2,0.1c0,0.1,0,0.2,0,0.3c0.9,0.1,1.9,0.3,2.8,0.3c2.6,0,5.2-0.2,7.7-0.2c0.7,0,1.4,0.1,2.1,0.1
		c1.1,0,2.2,0,3.3,0.1c1.3,0.1,2.6,0.2,3.9,0.5c1.2,0.3,2.4,0.8,3.6,1.3c-0.9,0.2-1.9,0.3-2.9,0.5c0,0.1,0,0.2-0.1,0.3
		c0.7,0.4,1.3,0.8,2.2,1.3c-0.8,0.1-1.4,0.2-2,0.3c1.9,1,4.3,1,6,2.6c-0.1,0.1-0.2,0.2-0.2,0.2c-0.3,0-0.6,0-0.9,0
		c-0.1-0.9-1.2-1.3-3.4-0.2c0.6,0.1,1.2,0.1,1.7,0.2c0.1,0.3,0.2,0.7,0.4,0.9c0.6,0.6,0.5,1-0.3,1.1c-0.1,0-0.2,0.2-0.4,0.3
		c0.8,0.9,2,0.3,2.8,0.7c0.9,0.4,1.8,0.7,2.7,1.1v0.1c-0.3,0.2-1.4,0-1.7-0.1c-0.6-0.3-1.3-0.3-2,0.2c0.3,0.2,0.5,0.4,0.9,0.7
		c-0.4,0.1-0.6,0.2-0.9,0.3c-0.4,0.2-0.7,0.4-1,0.6c0.4,0.3,0.7,0.8,1.1,1c0.7,0.3,1.5,0.5,2.3,0.8c0,0.1,0,0.2-0.1,0.3
		c-0.7,0-1.3,0-2,0c-0.4,0-0.8,0-0.8,0.6c0,0.5,0.1,0.8,0.7,0.8c1.2,0.1,2.2,0.6,3.3,1.5c-0.7,0.1-1.2,0.3-1.8,0.4
		c0,0.1,0,0.1,0,0.2c0.6,0.2,1.2,0.4,1.8,0.6c0,0.1,0,0.2,0,0.3c-0.6,0.1-1.1,0.3-1.7,0.4c-0.9,0.1-1.9,0-2.8,0.1
		c-1,0.2-2,0.5-3,0.8c0,0.1,0,0.2-0.1,0.3c0.7,0.3,1.4,0.7,2.3,1.1c-0.4,0.1-0.7,0.3-1.1,0.3c-0.9,0-1.9-0.1-2.8-0.1
		c-0.5,0-1,0.1-1.5,0.1s-1,0.1-1.5,0.1c-3.8-0.1-7.5-0.2-11.3-0.3c-1.6,0-3.2-0.2-4.7,0.1c-1.9,0.4-3.8,0.1-5.7,0.1
		c-3.5-0.1-7-0.3-10.5-0.3c-1.6,0-3.2,0.2-4.8,0.2c-2.8,0-5.6,0-8.4-0.1c-2.9,0-5.8,0-8.7,0c-2,0-3.9-0.1-5.9-0.1
		c-4.2,0.1-8.3,0.2-12.5,0.3c-1.7,0-3.4-0.1-5.1-0.1c-6.2-0.2-12.4-0.3-18.6-0.4c-2.5,0-5,0.2-7.5,0.2c-3.2,0-6.3-0.2-9.5-0.2
		c-5.1,0.1-10.3,0.4-15.4,0.5c-2.5,0-4.9-0.1-7.4-0.2c-2.1-0.1-4.2,0-6.4-0.2C591.3,138.4,590.3,138,589.1,137.6z M686.1,122.7
		c-3.2-0.2-5.6,2.6-5.5,5.7c0.1,3,2.5,5.4,5.6,5.4s5.5-2.5,5.4-5.7C691.6,124.9,689.3,122.7,686.1,122.7z M656.4,122.7
		c-3.3,0-5.5,2.3-5.4,5.6c0,3.1,2.4,5.5,5.4,5.5c3.2,0,5.5-2.3,5.5-5.6C661.9,124.9,659.7,122.7,656.4,122.7z M665.6,133.5
		c0.1,0,0.2,0,0.3,0c0-0.2,0.1-0.4,0.1-0.6c-0.4-1.9,0.5-3.2,1.9-4.3c0.2-0.1,0.4-0.3,0.5-0.5c0.5-0.6,0.8-0.5,1.2,0.1
		c1.2,1.6,2.4,3.3,3.6,4.9c0.2,0.3,0.5,0.4,0.7,0.6c0.1-0.1,0.1-0.2,0.2-0.2c-0.1-0.2-0.2-0.4-0.4-0.7c-1.1-1.5-2.2-3-3.2-4.5
		c-1.2-1.7-1.1-1.2,0.2-2.5c0.9-0.9,1.9-1.9,2.8-2.8c-0.1-0.1-0.1-0.2-0.2-0.3c-0.3,0.2-0.6,0.3-0.9,0.6c-1.8,1.8-3.6,3.6-5.4,5.4
		c-0.2,0.2-0.5,0.4-0.9,0.8c0-1.5,0-2.7,0-3.9c0-1.3,0-2.5,0-3.8c0-1.2,0-2.4,0-3.6c-0.1,0-0.3,0-0.4,0
		C665.6,123.2,665.6,128.4,665.6,133.5z M647.6,133.5c0.1,0,0.2,0,0.2,0c0.1-0.2,0.2-0.4,0.2-0.6c0-2.3,0.1-4.6-0.1-6.9
		c-0.1-1.4-0.9-2.4-2.2-3c-1.7-0.7-4.7-0.5-6,1.4c-0.1,0.1-0.3,0.3-0.5,0.5c-0.3-2.4,0.1-4.6-0.3-6.8c-0.5,1-0.4,14.9,0.1,15.6
		c0.1-0.5,0.1-0.9,0.1-1.2c0.1-1.9,0-3.8,0.3-5.7c0.3-2.3,2.3-3.7,4.7-3.5c2.2,0.2,3.4,1.5,3.4,4.1c0,1.8,0,3.6,0,5.3
		C647.4,132.9,647.5,133.2,647.6,133.5z M676.9,122.7c-0.4,1-0.3,10.3,0.1,10.8C677.5,132.9,677.5,123.3,676.9,122.7z M677,120.2
		c0.3-0.3,0.6-0.6,0.5-0.7c-0.1-0.2-0.4-0.5-0.6-0.5c-0.1,0-0.5,0.3-0.5,0.6C676.5,119.6,676.8,119.8,677,120.2z M694.2,134.1
		c0.3-0.3,0.6-0.6,0.6-0.7c0-0.2-0.3-0.4-0.5-0.7c-0.2,0.2-0.5,0.4-0.5,0.6C693.7,133.5,694,133.7,694.2,134.1z M624.4,114.8
		c0-0.1,0-0.1,0-0.2c-0.7,0-1.5,0-2.2,0c0,0.1,0,0.1,0,0.2C623,114.8,623.7,114.8,624.4,114.8z"/>
	<path d="M704.7,113.5c1.1,0,2.2,0,3.3,0v0.1C706.9,113.6,705.8,113.6,704.7,113.5C704.7,113.6,704.7,113.6,704.7,113.5z"/>
	<path class="st1" d="M694.2,134.1c-0.2-0.4-0.5-0.6-0.4-0.8c0-0.2,0.3-0.4,0.5-0.6c0.2,0.2,0.5,0.4,0.5,0.7
		C694.8,133.6,694.5,133.8,694.2,134.1z"/>
	<path d="M691,128.1c0,2.9-2,4.9-4.8,4.9c-2.9,0-4.9-2.1-4.9-4.9c0-2.9,2-4.9,4.9-4.9C689,123.2,691,125.3,691,128.1z"/>
	<path d="M656.4,133.1c-2.8,0-4.9-2.1-4.8-4.9c0.1-3,2-4.9,5-4.9c2.8,0,4.8,2.1,4.8,4.9C661.3,131.1,659.3,133.1,656.4,133.1z"/>
</g>
</svg>
